#!OML:ASF X:\für Bonn\!DataBase\2005_08_12_Daniel\c3d\Daniel.ASF
:FULLY-SPECIFIED
:DEGREES
294
root 1.27867 16.9288 -0.378547 6.11938 -89.5528 -15.8436
lowerback 15.6595 -1.84445 0.944311
upperback 2.1561 -2.38119 0.143004
thorax -6.50916 -1.23021 0.121731
lowerneck 1.57742 1.90819 3.03985
upperneck 1.22798 2.59474 -2.27061
head 0.186036 1.30621 -1.20882
rclavicle 1.12127e-014 3.18055e-015
rhumerus -35.4974 0.795291 -88.6249
rradius 57.8
rwrist 11.9042
rhand -21.9314 371.605
rfingers 7.12502
rthumb 4.47504 341.673
lclavicle 1.12127e-014 3.18055e-015
lhumerus -230.155 197.281 -76.8077
lradius 82.9342
lwrist 4.15707
lhand 26.1651 9.22112
lfingers 7.12502
lthumb 50.2286 30.323
rfemur 1.2666 6.61638 17.2297
rtibia 33.8392
rfoot 333.083 -9.79174
rtoes -12.8952
lfemur -5.59402 -8.10585 -12.1213
ltibia 42.4429
lfoot -24.7292 3.5772
ltoes -4.96041
295
root 1.29191 16.9154 -0.421979 59.7471 -89.5393 -69.6632
lowerback 15.6976 -1.86358 1.09422
upperback 2.18835 -2.37231 0.304833
thorax -6.49442 -1.22885 0.20747
lowerneck 1.75592 1.99408 3.1923
upperneck 1.70184 2.71911 -2.47734
head 0.31085 1.36932 -1.29974
rclavicle -3.75082e-014 -5.76476e-015
rhumerus -34.0872 2.18471 -89.4797
rradius 57.409
rwrist 11.8684
rhand -21.8755 371.725
rfingers 7.12502
rthumb 4.52901 341.794
lclavicle -3.75082e-014 -5.76476e-015
lhumerus -229.852 197.452 -76.4357
lradius 82.846
lwrist 3.26031
lhand 27.2767 9.14529
lfingers 7.12502
lthumb 51.2427 29.6902
rfemur 1.62548 7.51035 18.1056
rtibia 33.5924
rfoot 332.586 -10.4808
rtoes -12.6644
lfemur -5.56096 -7.83731 -11.5072
ltibia 42.7106
lfoot -24.6471 3.35364
ltoes -5.07272
296
root 1.30604 16.897 -0.462992 87.2745 -89.267 -97.4083
lowerback 15.775 -1.87949 1.29277
upperback 2.23195 -2.3542 0.421191
thorax -6.49289 -1.22487 0.216795
lowerneck 1.87203 2.05838 3.39329
upperneck 2.21255 2.81435 -2.6552
head 0.45795 1.41758 -1.38962
rclavicle 1.13494e-014 -1.23246e-014
rhumerus -32.7166 3.54801 -90.3164
rradius 57.029
rwrist 11.8842
rhand -21.6961 371.831
rfingers 7.12502
rthumb 4.70225 341.903
lclavicle 1.13494e-014 -1.23246e-014
lhumerus -229.537 197.662 -76.1087
lradius 82.7136
lwrist 2.23302
lhand 28.3271 9.00382
lfingers 7.12502
lthumb 52.1968 28.9919
rfemur 1.98236 8.3438 18.9449
rtibia 33.4007
rfoot 332.054 -11.1096
rtoes -12.4531
lfemur -5.52441 -7.62142 -10.9261
ltibia 43.0245
lfoot -24.6177 3.1153
ltoes -5.19265
297
root 1.32176 16.8745 -0.503377 98.9002 -88.8856 -109.288
lowerback 15.9055 -1.88779 1.5489
upperback 2.30302 -2.31651 0.544416
thorax -6.49277 -1.21327 0.198073
lowerneck 1.95567 2.11894 3.51943
upperneck 2.67022 2.90239 -2.80198
head 0.59321 1.46139 -1.45704
rclavicle 1.0051e-014 6.55989e-015
rhumerus -31.3233 4.97374 -91.0747
rradius 56.6437
rwrist 11.9678
rhand -21.5019 371.94
rfingers 7.12502
rthumb 4.88975 342.017
lclavicle 1.0051e-014 6.55989e-015
lhumerus -229.203 197.897 -75.7713
lradius 82.5891
lwrist 1.14139
lhand 29.3676 8.78756
lfingers 7.12502
lthumb 53.1375 28.1925
rfemur 2.35514 9.25271 19.8472
rtibia 33.257
rfoot 331.54 -11.7737
rtoes -12.1863
lfemur -5.48039 -7.32816 -10.2939
ltibia 43.3872
lfoot -24.5318 2.83305
ltoes -5.3403
298
root 1.33906 16.8493 -0.540928 103.644 -88.4798 -114.316
lowerback 16.1167 -1.89941 1.88855
upperback 2.36334 -2.26841 0.637508
thorax -6.55224 -1.19899 0.101101
lowerneck 1.99454 2.16078 3.61527
upperneck 3.16454 2.96318 -2.89771
head 0.745934 1.4909 -1.50271
rclavicle -1.52288e-014 -1.31198e-014
rhumerus -30.0546 6.36853 -91.7796
rradius 56.3629
rwrist 12.2995
rhand -21.2369 371.971
rfingers 7.12502
rthumb 5.1456 342.053
lclavicle -1.52288e-014 -1.31198e-014
lhumerus -228.914 198.163 -75.4165
lradius 82.445
lwrist 0.0429167
lhand 30.2062 8.55227
lfingers 7.12502
lthumb 53.8922 27.4629
rfemur 2.74373 10.0351 20.7264
rtibia 33.1424
rfoot 331.076 -12.3374
rtoes -11.9386
lfemur -5.44513 -7.05245 -9.65343
ltibia 43.8074
lfoot -24.4738 2.49223
ltoes -5.36953
299
root 1.35607 16.8208 -0.57659 106.387 -88.0763 -117.475
lowerback 16.4639 -1.90179 2.26732
upperback 2.47876 -2.20195 0.703516
thorax -6.62854 -1.17825 -0.0474332
lowerneck 1.95401 2.18817 3.73131
upperneck 3.66217 3.00286 -2.99008
head 0.913658 1.50951 -1.55053
rclavicle -1.70271e-014 -9.74045e-015
rhumerus -28.8473 7.73514 -92.4192
rradius 56.1854
rwrist 12.7292
rhand -20.9671 372.039
rfingers 7.12502
rthumb 5.40611 342.128
lclavicle -1.70271e-014 -9.74045e-015
lhumerus -228.603 198.509 -75.0488
lradius 82.2834
lwrist -0.979983
lhand 30.9154 8.3057
lfingers 7.12502
lthumb 54.528 26.7804
rfemur 3.28172 10.8199 21.6168
rtibia 33.0373
rfoot 330.607 -12.8586
rtoes -11.6519
lfemur -5.2995 -6.74889 -9.03445
ltibia 44.2893
lfoot -24.3583 2.14474
ltoes -5.41722
300
root 1.37421 16.7887 -0.609959 107.431 -87.6265 -119.066
lowerback 16.9829 -1.91691 2.74341
upperback 2.60818 -2.12965 0.757437
thorax -6.78566 -1.15849 -0.260145
lowerneck 1.95851 2.20557 3.78355
upperneck 4.12871 3.0274 -3.01684
head 1.06187 1.52028 -1.56715
rclavicle 1.4884e-014 -1.78906e-015
rhumerus -27.7577 9.09696 -93.0019
rradius 56.0902
rwrist 13.3021
rhand -20.7442 372.083
rfingers 7.12502
rthumb 5.62133 342.177
lclavicle 1.4884e-014 -1.78906e-015
lhumerus -228.399 198.902 -74.6644
lradius 82.1832
lwrist -1.86221
lhand 31.4661 8.10626
lfingers 7.12502
lthumb 55.02 26.2305
rfemur 3.96622 11.5458 22.5779
rtibia 32.9298
rfoot 330.19 -13.353
rtoes -11.3041
lfemur -5.05406 -6.47393 -8.37352
ltibia 44.8471
lfoot -24.2435 1.7452
ltoes -5.50226
301
root 1.3937 16.7561 -0.642359 108.027 -87.1024 -120.211
lowerback 17.5122 -1.93286 3.25906
upperback 2.74892 -2.04422 0.858205
thorax -6.93293 -1.13384 -0.449066
lowerneck 1.97699 2.22849 3.80384
upperneck 4.5429 3.05959 -3.06507
head 1.19202 1.53416 -1.58553
rclavicle 1.82012e-014 -2.18663e-014
rhumerus -26.6431 10.4726 -93.4725
rradius 55.9387
rwrist 13.9837
rhand -20.5218 372.217
rfingers 7.12502
rthumb 5.83606 342.318
lclavicle 1.82012e-014 -2.18663e-014
lhumerus -228.157 199.243 -74.2348
lradius 82.0388
lwrist -2.63629
lhand 31.8981 8.0155
lfingers 7.12502
lthumb 55.4048 25.8573
rfemur 4.64515 12.2119 23.5965
rtibia 32.8069
rfoot 329.85 -13.7844
rtoes -11.0032
lfemur -4.85964 -6.23792 -7.64379
ltibia 45.4898
lfoot -24.119 1.40249
ltoes -5.59057
302
root 1.41509 16.7273 -0.674157 107.496 -86.5463 -120.107
lowerback 17.9271 -1.96488 3.86597
upperback 2.87494 -1.96194 0.945998
thorax -7.03489 -1.11265 -0.706901
lowerneck 1.95471 2.24123 3.87499
upperneck 4.95283 3.07755 -3.11409
head 1.32904 1.54143 -1.61311
rclavicle 1.32751e-014 1.78906e-015
rhumerus -25.4836 11.8131 -93.8869
rradius 55.6886
rwrist 14.7598
rhand -20.3937 372.406
rfingers 7.12502
rthumb 5.95971 342.51
lclavicle 1.32751e-014 1.78906e-015
lhumerus -227.949 199.625 -73.8172
lradius 81.9138
lwrist -3.22617
lhand 32.1644 8.11066
lfingers 7.12502
lthumb 55.6416 25.7749
rfemur 5.18385 12.7841 24.6255
rtibia 32.6716
rfoot 329.598 -14.2149
rtoes -10.7745
lfemur -4.89048 -6.00037 -6.82458
ltibia 46.216
lfoot -23.8766 1.03188
ltoes -5.67017
303
root 1.43746 16.7029 -0.704709 107.194 -85.946 -120.075
lowerback 18.2116 -1.9928 4.52784
upperback 2.94795 -1.86072 1.0409
thorax -7.12144 -1.0829 -0.996281
lowerneck 1.98044 2.23952 3.94419
upperneck 5.31366 3.0765 -3.14743
head 1.44173 1.53965 -1.63618
rclavicle -1.48001e-014 1.21259e-014
rhumerus -24.3894 13.1359 -94.2458
rradius 55.4279
rwrist 15.5273
rhand -20.3408 372.636
rfingers 7.12502
rthumb 6.01079 342.741
lclavicle -1.48001e-014 1.21259e-014
lhumerus -227.754 199.966 -73.4118
lradius 81.7165
lwrist -3.7446
lhand 32.4072 8.12352
lfingers 7.12502
lthumb 55.8571 25.6235
rfemur 5.53657 13.2771 25.6207
rtibia 32.5233
rfoot 329.404 -14.5361
rtoes -10.3985
lfemur -5.13809 -5.74506 -5.94432
ltibia 47.0055
lfoot -23.5687 0.720627
ltoes -5.72974
304
root 1.46048 16.6811 -0.733851 106.877 -85.4084 -119.982
lowerback 18.4543 -2.02689 5.13266
upperback 3.0217 -1.77785 1.13234
thorax -7.18166 -1.06047 -1.25431
lowerneck 1.98401 2.25036 3.99237
upperneck 5.6492 3.09147 -3.1829
head 1.55091 1.54542 -1.65609
rclavicle 8.65335e-015 -8.34896e-015
rhumerus -23.2814 14.4064 -94.5446
rradius 55.0505
rwrist 16.3741
rhand -20.3974 372.99
rfingers 7.12502
rthumb 5.95612 343.094
lclavicle 8.65335e-015 -8.34896e-015
lhumerus -227.512 200.234 -73.017
lradius 81.5017
lwrist -4.03639
lhand 32.5211 8.34171
lfingers 7.12502
lthumb 55.9581 25.7639
rfemur 5.82952 13.7278 26.5266
rtibia 32.3798
rfoot 329.269 -14.8512
rtoes -10.1595
lfemur -5.47227 -5.50478 -5.13148
ltibia 47.8183
lfoot -23.1761 0.434324
ltoes -5.92336
305
root 1.48288 16.6625 -0.761795 106.649 -84.9343 -119.95
lowerback 18.6779 -2.05381 5.70983
upperback 3.08323 -1.6901 1.19457
thorax -7.24266 -1.03519 -1.52995
lowerneck 1.93702 2.24863 3.98419
upperneck 6.01536 3.08478 -3.14907
head 1.67556 1.53984 -1.64352
rclavicle 2.49102e-014 4.17448e-015
rhumerus -22.2448 15.5727 -94.8106
rradius 54.6412
rwrist 17.2557
rhand -20.5108 373.346
rfingers 7.12502
rthumb 5.84671 343.447
lclavicle 2.49102e-014 4.17448e-015
lhumerus -227.262 200.426 -72.6402
lradius 81.2106
lwrist -4.3027
lhand 32.7382 8.52074
lfingers 7.12502
lthumb 56.1504 25.7932
rfemur 6.08259 14.129 27.337
rtibia 32.2544
rfoot 329.126 -15.1281
rtoes -9.91585
lfemur -5.84617 -5.30325 -4.39293
ltibia 48.6164
lfoot -22.7031 0.168122
ltoes -6.02322
306
root 1.50404 16.6468 -0.789028 106.803 -84.5772 -120.273
lowerback 18.875 -2.0713 6.14331
upperback 3.13132 -1.61758 1.23747
thorax -7.30031 -1.01363 -1.74226
lowerneck 1.93117 2.24302 4.04843
upperneck 6.34365 3.07854 -3.21442
head 1.78533 1.53466 -1.67649
rclavicle 2.83361e-014 4.37326e-015
rhumerus -21.2613 16.7344 -95.0519
rradius 54.1425
rwrist 18.0489
rhand -20.7144 373.793
rfingers 7.12502
rthumb 5.65008 343.888
lclavicle 2.83361e-014 4.37326e-015
lhumerus -226.948 200.444 -72.3031
lradius 80.7773
lwrist -4.54543
lhand 32.8635 8.47328
lfingers 7.12502
lthumb 56.2613 25.6585
rfemur 6.30172 14.5455 28.0125
rtibia 32.1645
rfoot 328.988 -15.421
rtoes -9.62162
lfemur -6.22351 -5.11364 -3.80682
ltibia 49.3611
lfoot -22.172 -0.0163729
ltoes -6.23956
